{
.appVersion = "3227";
.formatVersion = 3;
DisplayStrings = (
"HHAHOAOO
HHBHOBOO
HHDHODOO
HHEHOEOO
HHFHOFOO
HHGHOGOO
HHIHOIOO
HHMHOMOO
HHNHONOO
HHRHOROO
HHSHOSOO
HHTHOTOO
HHUHOUOO
HHVHOVOO
HHnHOnOO
HHoHOoOO
nnanoaoo
nnbnoboo
nndnodoo
nnenoeoo
nnfnofoo
nngnogoo
nnhnohoo
nninoioo
nnmnomoo
nnnnonoo
nnrnoroo
nnsnosoo
nntnotoo
nnunouoo
nnvnovoo

clement 
through
",
"Abraham Brunetti Detroit Evanson Fairburn Genovese Hanraets Isbister Merritt Nussbaum Osbourne Robinson Stroman Travieso Varnham Antonino Beaumont Ethanson Fontana Germano Herriot Ingesson Montana Neumann Overton Ruggeri Steensen Thomson Vonnegut Abraham Brunetti Evanson Fairburn Genovese Hanraets Isbister Merritt Nussbaum Osbourne Robinson Stroman Travieso Varnham Antonino Beaumont Ethanson Fontana Germano Herriot Ingesson Montana Neumann Overton Ruggeri Steensen Thomson Vonnegut 


Abraham Brunetti Detroit Evanson Fairburn Genovese Hanraets Isbister Merritt Nussbaum Osbourne Robinson Stroman Travieso Varnham Antonino Beaumont Ethanson Fontana Germano Herriot Ingesson Montana Neumann Overton Ruggeri Steensen Thomson Vonnegut Abraham Brunetti Evanson Fairburn Genovese Hanraets Isbister Merritt Nussbaum Osbourne Robinson Stroman Travieso Varnham Antonino Beaumont Ethanson Fontana Germano Herriot Ingesson Montana Neumann Overton Ruggeri Steensen Thomson Vonnegut


Abraham Brunetti Detroit Evanson Fairburn Genovese Hanraets Isbister Merritt Nussbaum Osbourne Robinson Stroman Travieso Varnham Antonino Beaumont Ethanson Fontana Germano Herriot Ingesson Montana Neumann Overton Ruggeri Steensen Thomson Vonnegut Abraham Brunetti Evanson Fairburn Genovese Hanraets Isbister Merritt Nussbaum Osbourne Robinson Stroman Travieso Varnham Antonino Beaumont Ethanson Fontana Germano Herriot Ingesson Montana Neumann Overton Ruggeri Steensen Thomson Vonnegut",
"HAMBURGEDFONTSIV
hamburgedfontsiv

The Quick Brown Fox
Jumps Over the LaZy Dog

The tHE Www lz oZ yale
When is the ProGraMme",
A
);
date = "2023-10-16 11:25:55 +0000";

glyphs = (
{
glyphname = A;
lastChange = "2023-12-06 21:51:48 +0000";
layers = (
{
layerId = m01;
shapes = (
{
closed = 1;
nodes = (
(70,34,o),
(155,97,o),
(161,125,cs),
(197,289,o),
(241,452,o),
(276,615,cs),
(283,649,o),
(174,547,o),
(168,521,cs),
(135,369,o),
(110,217,o),
(77,65,cs)
);
},
{
closed = 1;
nodes = (
(25,145,o),
(-32,-25,o),
(-1,3,cs),
(19,21,o),
(53,30,o),
(85,28,cs),
(109,27,o),
(132,18,o),
(144,1,cs),
(158,-19,o),
(221,151,o),
(208,169,cs),
(195,187,o),
(170,197,o),
(144,199,cs),
(111,201,o),
(74,190,o),
(49,167,cs)
);
},
{
closed = 1;
nodes = (
(81,407,o),
(24,237,o),
(34,237,cs),
(63,237,o),
(92,237,o),
(121,237,c),
(124,236,o),
(132,244,o),
(136,243,c),
(193,243,o),
(249,242,o),
(305,242,c),
(313,244,o),
(322,237,o),
(330,238,c),
(365,238,o),
(401,238,o),
(437,238,cs),
(449,238,o),
(509,408,o),
(497,408,cs),
(462,408,o),
(426,408,o),
(390,408,c),
(379,405,o),
(370,394,o),
(359,392,c),
(305,391,o),
(251,390,o),
(198,389,c),
(191,392,o),
(189,404,o),
(181,407,c),
(152,407,o),
(123,407,o),
(94,407,cs)
);
},
{
closed = 1;
nodes = (
(386,719,o),
(244,615,o),
(276,615,cs),
(287,615,o),
(286,492,o),
(285,356,cs),
(284,247,o),
(282,130,o),
(284,62,cs),
(286,6,o),
(307,-9,o),
(351,4,cs),
(363,8,o),
(386,25,o),
(408,47,cs),
(450,87,o),
(493,139,o),
(467,132,cs),
(435,123,o),
(415,132,o),
(414,184,cs),
(412,234,o),
(415,314,o),
(419,397,cs),
(427,552,o),
(435,719,o),
(412,719,cs)
);
},
{
closed = 1;
nodes = (
(231,595,o),
(227,503,o),
(237,511,cs),
(266,534,o),
(295,557,o),
(324,580,cs),
(333,587,o),
(339,681,o),
(328,672,cs),
(299,649,o),
(270,626,o),
(241,603,cs)
);
}
);
width = 534;
}
);
unicode = 65;
},
{
glyphname = B;
lastChange = "2023-12-06 21:51:48 +0000";
layers = (
{
layerId = m01;
shapes = (
{
closed = 1;
nodes = (
(300,-3,o),
(423,143,o),
(400,147,cs),
(343,158,o),
(295,166,o),
(254,172,cs),
(137,189,o),
(80,188,o),
(51,168,cs),
(28,152,o),
(-31,-19,o),
(-3,0,cs),
(2,4,o),
(51,25,o),
(166,16,cs),
(199,14,o),
(236,9,o),
(280,1,cs)
);
},
{
closed = 1;
nodes = (
(175,627,o),
(95,576,o),
(88,535,cs),
(70,431,o),
(43,125,o),
(42,113,cs),
(38,75,o),
(115,128,o),
(118,165,cs),
(118,165,o),
(152,495,o),
(168,585,cs)
);
},
{
closed = 1;
nodes = (
(236,305,o),
(230,283,o),
(237,274,cs),
(247,262,o),
(286,277,o),
(325,326,cs),
(372,384,o),
(402,434,o),
(419,477,cs),
(451,556,o),
(439,613,o),
(405,652,cs),
(348,716,o),
(227,728,o),
(138,705,cs),
(115,699,o),
(23,543,o),
(52,551,cs),
(160,579,o),
(245,563,o),
(286,520,cs),
(325,479,o),
(324,413,o),
(263,338,cs)
);
},
{
closed = 1;
nodes = (
(117,500,o),
(55,331,o),
(73,323,cs),
(238,259,o),
(311,225,o),
(336,197,cs),
(357,174,o),
(342,155,o),
(319,126,cs),
(243,31,o),
(297,1,o),
(375,98,cs),
(472,220,o),
(489,292,o),
(456,342,cs),
(413,409,o),
(280,436,o),
(135,493,cs)
);
}
);
width = 501;
}
);
unicode = 66;
},
{
glyphname = C;
lastChange = "2023-12-06 21:51:48 +0000";
layers = (
{
guides = (
{
pos = (692,541);
}
);
layerId = m01;
shapes = (
{
closed = 1;
nodes = (
(414,662,o),
(284,596,o),
(233,543,cs),
(75,379,o),
(19,250,o),
(20,158,cs),
(21,-19,o),
(229,-62,o),
(332,35,cs),
(365,66,o),
(441,249,o),
(404,213,cs),
(322,135,o),
(183,138,o),
(161,238,cs),
(146,310,o),
(191,431,o),
(361,607,cs)
);
},
{
closed = 1;
nodes = (
(413,593,o),
(466,761,o),
(434,727,cs),
(421,714,o),
(377,705,o),
(335,706,cs),
(301,708,o),
(268,715,o),
(250,732,cs),
(234,747,o),
(170,579,o),
(186,564,cs),
(205,547,o),
(239,538,o),
(274,536,cs),
(319,534,o),
(366,544,o),
(386,565,cs)
);
}
);
width = 459;
}
);
unicode = 67;
},
{
glyphname = D;
lastChange = "2023-12-06 21:51:48 +0000";
layers = (
{
layerId = m01;
shapes = (
{
closed = 1;
nodes = (
(96,725,o),
(32,554,o),
(50,545,cs),
(193,480,o),
(276,407,o),
(318,336,cs),
(370,250,o),
(361,169,o),
(328,115,cs),
(286,46,o),
(342,39,o),
(386,111,cs),
(472,251,o),
(471,382,o),
(400,493,cs),
(345,580,o),
(247,656,o),
(114,717,cs)
);
},
{
closed = 1;
nodes = (
(45,48,o),
(125,43,o),
(128,95,cs),
(139,309,o),
(170,614,o),
(150,641,cs),
(119,680,o),
(53,634,o),
(86,591,cs),
(87,591,o),
(61,358,o),
(48,99,cs)
);
},
{
closed = 1;
nodes = (
(304,-4,o),
(423,146,o),
(383,150,cs),
(330,156,o),
(287,162,o),
(252,167,cs),
(136,184,o),
(99,194,o),
(65,167,cs),
(41,148,o),
(-16,-22,o),
(13,1,cs),
(23,9,o),
(48,17,o),
(149,10,cs),
(181,8,o),
(221,5,o),
(271,0,cs)
);
}
);
width = 487;
}
);
unicode = 68;
},
{
glyphname = E;
lastChange = "2023-12-06 21:51:48 +0000";
layers = (
{
layerId = m01;
shapes = (
{
closed = 1;
nodes = (
(175,659,o),
(100,606,o),
(97,580,cs),
(89,502,o),
(81,423,o),
(73,346,cs),
(61,237,o),
(49,131,o),
(39,29,cs),
(34,-15,o),
(55,0,o),
(63,6,cs),
(90,30,o),
(121,35,o),
(170,19,cs),
(238,-2,o),
(329,-18,o),
(379,25,cs),
(402,44,o),
(448,218,o),
(421,195,cs),
(385,166,o),
(294,169,o),
(232,189,cs),
(181,205,o),
(154,206,o),
(99,160,c),
(107,152,o),
(115,144,o),
(123,137,c),
(131,216,o),
(139,292,o),
(146,367,cs),
(155,456,o),
(163,543,o),
(173,630,cs)
);
},
{
closed = 1;
nodes = (
(80,438,o),
(63,405,o),
(49,368,cs),
(31,322,o),
(17,268,o),
(29,268,cs),
(83,268,o),
(138,269,o),
(192,269,cs),
(245,269,o),
(299,269,o),
(352,269,cs),
(362,269,o),
(383,312,o),
(398,355,cs),
(413,397,o),
(423,439,o),
(412,439,cs),
(353,439,o),
(295,438,o),
(236,438,cs),
(187,438,o),
(138,438,o),
(89,438,cs)
);
},
{
closed = 1;
nodes = (
(440,549,o),
(487,723,o),
(460,703,cs),
(435,685,o),
(357,695,o),
(279,701,cs),
(206,707,o),
(132,709,o),
(98,681,cs),
(75,662,o),
(31,491,o),
(56,511,cs),
(89,538,o),
(170,531,o),
(247,525,cs),
(320,519,o),
(390,512,o),
(418,533,cs)
);
}
);
width = 468;
}
);
unicode = 69;
},
{
glyphname = F;
lastChange = "2023-12-06 21:51:48 +0000";
layers = (
{
layerId = m01;
shapes = (
{
closed = 1;
nodes = (
(186,709,o),
(163,697,o),
(140,663,cs),
(121,635,o),
(101,591,o),
(97,554,cs),
(80,383,o),
(66,239,o),
(50,82,cs),
(48,57,o),
(126,99,o),
(128,122,cs),
(146,303,o),
(165,496,o),
(181,662,cs)
);
},
{
closed = 1;
nodes = (
(440,561,o),
(483,733,o),
(454,705,cs),
(436,688,o),
(358,691,o),
(281,695,cs),
(209,698,o),
(138,702,o),
(114,690,cs),
(91,678,o),
(37,508,o),
(62,520,cs),
(88,534,o),
(180,523,o),
(265,519,cs),
(331,516,o),
(393,517,o),
(414,537,cs)
);
},
{
closed = 1;
nodes = (
(367,285,o),
(415,459,o),
(389,444,cs),
(369,433,o),
(292,438,o),
(219,440,cs),
(161,442,o),
(105,442,o),
(86,431,cs),
(63,418,o),
(18,245,o),
(42,259,cs),
(61,270,o),
(128,268,o),
(195,265,cs),
(260,263,o),
(324,260,o),
(345,272,cs)
);
},
{
closed = 1;
nodes = (
(39,157,o),
(24,124,o),
(11,90,cs),
(-7,39,o),
(-20,-15,o),
(-1,2,cs),
(17,19,o),
(49,28,o),
(80,28,cs),
(105,27,o),
(130,18,o),
(144,0,cs),
(153,-11,o),
(180,47,o),
(196,98,cs),
(207,131,o),
(213,161,o),
(208,168,cs),
(191,190,o),
(160,199,o),
(127,197,cs),
(99,196,o),
(70,185,o),
(49,166,cs)
);
}
);
width = 434;
}
);
unicode = 70;
},
{
glyphname = G;
lastChange = "2023-12-06 21:51:48 +0000";
layers = (
{
layerId = m01;
shapes = (
{
closed = 1;
nodes = (
(420,643,o),
(394,647,o),
(359,634,cs),
(338,627,o),
(314,615,o),
(296,599,cs),
(125,448,o),
(42,312,o),
(24,204,cs),
(10,120,o),
(35,53,o),
(88,9,cs),
(126,-22,o),
(185,-16,o),
(199,-16,cs),
(208,-16,o),
(387,140,o),
(419,186,cs),
(439,217,o),
(430,266,o),
(407,234,cs),
(391,209,o),
(279,116,o),
(279,116,cs),
(275,116,o),
(241,115,o),
(214,137,cs),
(170,173,o),
(149,221,o),
(154,279,cs),
(163,367,o),
(234,479,o),
(388,615,cs)
);
},
{
closed = 1;
nodes = (
(263,351,o),
(175,219,o),
(236,267,cs),
(248,277,o),
(280,283,o),
(303,267,cs),
(319,257,o),
(330,236,o),
(328,200,cs),
(325,135,o),
(316,72,o),
(309,6,cs),
(303,-58,o),
(315,-105,o),
(350,-100,cs),
(377,-97,o),
(503,33,o),
(470,28,cs),
(447,25,o),
(444,50,o),
(451,114,cs),
(457,178,o),
(466,244,o),
(470,308,cs),
(472,350,o),
(448,388,o),
(414,405,cs),
(384,419,o),
(347,418,o),
(312,391,cs)
);
},
{
closed = 1;
nodes = (
(413,593,o),
(466,761,o),
(434,727,cs),
(421,714,o),
(380,705,o),
(338,706,cs),
(303,707,o),
(268,715,o),
(250,732,cs),
(234,747,o),
(170,579,o),
(186,564,cs),
(205,547,o),
(241,537,o),
(277,536,cs),
(321,535,o),
(366,544,o),
(386,565,cs)
);
}
);
width = 520;
}
);
unicode = 71;
},
{
glyphname = H;
lastChange = "2023-12-06 21:51:48 +0000";
layers = (
{
guides = (
{
pos = (103,-2);
},
{
pos = (204,711);
},
{
pos = (1015,217);
}
);
layerId = m01;
shapes = (
{
closed = 1;
nodes = (
(84,438,o),
(23,268,o),
(44,268,cs),
(188,269,o),
(333,269,o),
(477,269,cs),
(496,269,o),
(558,439,o),
(537,439,cs),
(393,438,o),
(248,438,o),
(104,438,cs)
);
},
{
closed = 1;
nodes = (
(168,702,o),
(38,571,o),
(77,580,cs),
(86,583,o),
(97,564,o),
(92,488,cs),
(82,361,o),
(72,234,o),
(63,106,cs),
(57,39,o),
(81,-4,o),
(104,0,cs),
(134,5,o),
(261,138,o),
(226,132,cs),
(191,126,o),
(203,155,o),
(207,218,cs),
(217,345,o),
(227,472,o),
(236,600,cs),
(241,660,o),
(230,717,o),
(199,710,cs)
);
},
{
closed = 1;
nodes = (
(437,702,o),
(307,571,o),
(346,580,cs),
(355,583,o),
(366,564,o),
(361,488,cs),
(351,361,o),
(341,234,o),
(332,106,cs),
(326,39,o),
(350,-4,o),
(373,0,cs),
(403,5,o),
(530,138,o),
(495,132,cs),
(460,126,o),
(472,155,o),
(476,218,cs),
(486,345,o),
(496,472,o),
(505,600,cs),
(510,660,o),
(499,717,o),
(468,710,cs)
);
}
);
width = 581;
}
);
unicode = 72;
},
{
glyphname = I;
lastChange = "2023-12-06 21:51:48 +0000";
layers = (
{
layerId = m01;
shapes = (
{
closed = 1;
nodes = (
(156,702,o),
(26,571,o),
(65,580,cs),
(74,583,o),
(85,565,o),
(80,488,cs),
(70,361,o),
(60,234,o),
(51,106,cs),
(45,39,o),
(69,-4,o),
(92,0,cs),
(122,5,o),
(249,138,o),
(214,132,cs),
(179,126,o),
(191,155,o),
(195,218,cs),
(205,345,o),
(215,472,o),
(224,600,cs),
(229,661,o),
(218,717,o),
(187,710,cs)
);
}
);
width = 275;
}
);
unicode = 73;
},
{
glyphname = J;
lastChange = "2023-12-06 21:51:48 +0000";
layers = (
{
layerId = m01;
shapes = (
{
closed = 1;
nodes = (
(103,-23,o),
(215,118,o),
(211,141,cs),
(206,160,o),
(190,187,o),
(169,209,cs),
(143,236,o),
(109,256,o),
(82,247,cs),
(72,243,o),
(49,219,o),
(27,193,cs),
(-8,149,o),
(-40,97,o),
(-18,105,cs),
(0,112,o),
(27,96,o),
(51,73,cs),
(74,51,o),
(93,23,o),
(97,3,cs)
);
},
{
closed = 1;
nodes = (
(322,702,o),
(192,571,o),
(231,580,cs),
(240,583,o),
(253,563,o),
(246,488,cs),
(236,399,o),
(226,309,o),
(217,219,cs),
(203,96,o),
(201,120,o),
(199,119,cs),
(128,64,o),
(56,-40,o),
(135,21,cs),
(186,61,o),
(226,97,o),
(256,128,cs),
(356,232,o),
(357,293,o),
(361,331,cs),
(371,420,o),
(381,510,o),
(390,600,cs),
(397,661,o),
(384,717,o),
(353,710,cs)
);
}
);
width = 427;
}
);
unicode = 74;
},
{
glyphname = K;
lastChange = "2023-12-06 21:51:48 +0000";
layers = (
{
layerId = m01;
shapes = (
{
closed = 1;
nodes = (
(288,485,o),
(169,349,o),
(186,339,cs),
(195,333,o),
(220,247,o),
(254,163,cs),
(288,76,o),
(332,-8,o),
(377,1,cs),
(390,3,o),
(423,36,o),
(451,70,cs),
(481,105,o),
(504,141,o),
(487,137,cs),
(452,131,o),
(412,213,o),
(377,297,cs),
(343,382,o),
(314,469,o),
(304,475,cs)
);
},
{
closed = 1;
nodes = (
(147,704,o),
(122,683,o),
(98,660,cs),
(56,618,o),
(16,568,o),
(44,579,cs),
(54,583,o),
(61,566,o),
(56,496,cs),
(46,370,o),
(36,244,o),
(27,118,cs),
(22,54,o),
(22,0,o),
(67,0,cs),
(79,0,o),
(115,34,o),
(146,69,cs),
(180,110,o),
(209,152,o),
(191,152,cs),
(168,152,o),
(167,165,o),
(171,230,cs),
(181,356,o),
(191,482,o),
(200,608,cs),
(205,663,o),
(198,723,o),
(160,709,cs)
);
},
{
closed = 1;
nodes = (
(492,572,o),
(546,740,o),
(515,711,cs),
(497,694,o),
(464,685,o),
(434,685,cs),
(408,686,o),
(384,695,o),
(370,713,cs),
(356,731,o),
(291,564,o),
(306,545,cs),
(320,528,o),
(342,518,o),
(367,516,cs),
(401,513,o),
(440,524,o),
(465,547,cs)
);
},
{
closed = 1;
nodes = (
(492,608,o),
(398,615,o),
(381,596,cs),
(373,586,o),
(328,538,o),
(275,481,cs),
(183,383,o),
(65,257,o),
(60,251,cs),
(51,241,o),
(72,234,o),
(97,233,cs),
(120,231,o),
(146,234,o),
(154,243,cs),
(154,243,o),
(254,350,o),
(342,445,cs),
(408,516,o),
(468,581,o),
(475,588,cs)
);
}
);
width = 524;
}
);
unicode = 75;
},
{
glyphname = L;
lastChange = "2023-12-06 21:51:48 +0000";
layers = (
{
layerId = m01;
shapes = (
{
closed = 1;
nodes = (
(48,92,o),
(-3,-43,o),
(43,11,cs),
(70,42,o),
(122,59,o),
(169,37,cs),
(210,16,o),
(273,-19,o),
(325,18,cs),
(350,36,o),
(407,206,o),
(377,184,cs),
(337,155,o),
(304,170,o),
(263,189,cs),
(208,217,o),
(150,210,o),
(87,137,cs)
);
},
{
closed = 1;
nodes = (
(147,703,o),
(20,575,o),
(57,583,cs),
(77,587,o),
(71,561,o),
(65,490,cs),
(52,334,o),
(41,177,o),
(27,21,cs),
(24,-16,o),
(164,122,o),
(167,155,cs),
(179,303,o),
(194,450,o),
(207,598,cs),
(211,649,o),
(217,717,o),
(177,709,cs)
);
}
);
width = 421;
}
);
unicode = 76;
},
{
glyphname = M;
lastChange = "2023-12-06 21:51:48 +0000";
layers = (
{
layerId = m01;
shapes = (
{
closed = 1;
nodes = (
(261,727,o),
(140,608,o),
(151,590,cs),
(191,526,o),
(219,354,o),
(246,212,cs),
(265,109,o),
(284,22,o),
(307,1,cs),
(321,-12,o),
(442,108,o),
(427,121,cs),
(400,146,o),
(379,277,o),
(353,411,cs),
(331,532,o),
(305,656,o),
(271,710,cs)
);
},
{
closed = 1;
nodes = (
(35,67,o),
(123,109,o),
(131,134,cs),
(210,367,o),
(214,650,o),
(214,652,cs),
(216,676,o),
(143,611,o),
(142,588,cs),
(141,577,o),
(125,333,o),
(45,96,cs)
);
},
{
closed = 1;
nodes = (
(301,130,o),
(394,161,o),
(403,184,cs),
(418,222,o),
(432,260,o),
(445,296,cs),
(507,472,o),
(541,620,o),
(544,638,cs),
(548,669,o),
(468,617,o),
(464,586,cs),
(464,581,o),
(441,511,o),
(407,413,cs),
(381,339,o),
(347,248,o),
(311,156,cs)
);
},
{
closed = 1;
nodes = (
(598,737,o),
(469,613,o),
(469,585,cs),
(471,529,o),
(472,388,o),
(480,258,cs),
(489,124,o),
(507,3,o),
(544,1,cs),
(568,0,o),
(687,121,o),
(660,123,cs),
(625,125,o),
(611,260,o),
(605,403,cs),
(600,525,o),
(600,652,o),
(599,707,cs)
);
},
{
closed = 1;
nodes = (
(9,143,o),
(-47,-27,o),
(-16,2,cs),
(3,20,o),
(39,29,o),
(72,27,cs),
(97,26,o),
(120,17,o),
(133,0,cs),
(148,-19,o),
(210,150,o),
(197,168,cs),
(182,188,o),
(153,198,o),
(123,198,cs),
(90,198,o),
(56,187,o),
(34,166,cs)
);
}
);
width = 704;
}
);
unicode = 77;
},
{
glyphname = N;
lastChange = "2023-12-06 21:51:48 +0000";
layers = (
{
layerId = m01;
shapes = (
{
closed = 1;
nodes = (
(191,718,o),
(164,698,o),
(136,672,cs),
(103,641,o),
(69,601,o),
(74,591,cs),
(116,517,o),
(158,416,o),
(202,315,cs),
(256,193,o),
(311,72,o),
(368,2,cs),
(374,-6,o),
(410,23,o),
(441,54,cs),
(470,83,o),
(494,115,o),
(488,122,cs),
(437,185,o),
(386,293,o),
(337,405,cs),
(288,514,o),
(241,629,o),
(196,709,cs)
);
},
{
closed = 1;
nodes = (
(44,106,o),
(62,102,o),
(83,104,cs),
(102,105,o),
(122,112,o),
(126,121,cs),
(146,172,o),
(165,592,o),
(165,595,cs),
(166,620,o),
(97,582,o),
(95,561,cs),
(94,547,o),
(67,166,o),
(48,117,cs)
);
},
{
closed = 1;
nodes = (
(-1,145,o),
(-57,-25,o),
(-26,4,cs),
(-7,21,o),
(26,31,o),
(57,29,cs),
(82,28,o),
(105,20,o),
(119,2,cs),
(134,-17,o),
(196,152,o),
(183,170,cs),
(167,191,o),
(137,201,o),
(106,200,cs),
(76,199,o),
(45,188,o),
(24,168,cs)
);
},
{
closed = 1;
nodes = (
(540,570,o),
(594,738,o),
(563,709,cs),
(544,692,o),
(511,682,o),
(480,684,cs),
(455,685,o),
(431,693,o),
(418,711,cs),
(404,729,o),
(339,562,o),
(354,543,cs),
(371,522,o),
(402,512,o),
(434,513,cs),
(462,515,o),
(492,526,o),
(513,545,cs)
);
},
{
closed = 1;
nodes = (
(361,78,o),
(442,104,o),
(451,127,cs),
(477,193,o),
(489,570,o),
(491,592,cs),
(492,616,o),
(421,582,o),
(419,560,cs),
(419,560,o),
(386,144,o),
(371,103,cs)
);
}
);
width = 552;
}
);
unicode = 78;
},
{
glyphname = O;
lastChange = "2023-12-06 21:54:14 +0000";
layers = (
{
layerId = m01;
shapes = (
{
closed = 1;
nodes = (
(179,70,o),
(150,31,o),
(144,7,cs),
(138,-20,o),
(160,-27,o),
(219,14,cs),
(263,45,o),
(309,87,o),
(348,137,cs),
(413,221,o),
(458,328,o),
(442,447,cs),
(431,531,o),
(391,622,o),
(306,715,cs),
(292,731,o),
(195,546,o),
(210,529,cs),
(286,445,o),
(322,376,o),
(334,319,cs),
(367,166,o),
(229,105,o),
(227,104,cs)
);
},
{
closed = 1;
nodes = (
(291,591,o),
(351,763,o),
(284,698,cs),
(249,663,o),
(176,570,o),
(115,461,cs),
(46,339,o),
(-9,198,o),
(17,100,cs),
(31,42,o),
(74,0,o),
(157,-15,cs),
(194,-22,o),
(351,119,o),
(307,127,cs),
(193,148,o),
(152,206,o),
(146,273,cs),
(134,392,o),
(234,536,o),
(234,536,cs)
);
}
);
width = 465;
}
);
unicode = 79;
},
{
glyphname = P;
lastChange = "2023-12-06 21:51:48 +0000";
layers = (
{
guides = (
{
pos = (108,716);
},
{
pos = (-222,587);
},
{
pos = (-231,373);
}
);
layerId = m01;
shapes = (
{
closed = 1;
nodes = (
(231,276,o),
(226,256,o),
(233,248,cs),
(243,235,o),
(285,253,o),
(325,305,cs),
(439,453,o),
(453,559,o),
(413,626,cs),
(368,705,o),
(249,731,o),
(135,707,cs),
(113,702,o),
(30,564,o),
(57,569,cs),
(185,596,o),
(264,567,o),
(296,512,cs),
(326,459,o),
(312,382,o),
(255,307,cs)
);
},
{
closed = 1;
nodes = (
(261,214,o),
(378,364,o),
(329,369,cs),
(286,374,o),
(251,379,o),
(222,384,cs),
(149,395,o),
(115,404,o),
(93,394,cs),
(71,386,o),
(12,216,o),
(35,226,cs),
(42,228,o),
(68,232,o),
(152,225,cs),
(171,224,o),
(194,222,o),
(219,219,cs)
);
},
{
closed = 1;
nodes = (
(212,629,o),
(71,519,o),
(69,492,cs),
(61,363,o),
(53,235,o),
(44,106,cs),
(40,42,o),
(53,0,o),
(84,0,cs),
(108,0,o),
(235,130,o),
(206,130,cs),
(185,130,o),
(181,150,o),
(186,214,cs),
(194,343,o),
(202,471,o),
(211,600,cs)
);
}
);
width = 438;
}
);
unicode = 80;
},
{
glyphname = Q;
lastChange = "2023-12-06 21:51:48 +0000";
layers = (
{
layerId = m01;
shapes = (
{
closed = 1;
nodes = (
(263,335,o),
(219,290,o),
(221,273,cs),
(228,217,o),
(262,107,o),
(318,40,cs),
(352,-1,o),
(395,-26,o),
(444,-13,cs),
(468,-7,o),
(541,194,o),
(514,187,cs),
(464,175,o),
(409,182,o),
(363,203,cs),
(311,227,o),
(272,268,o),
(265,319,cs)
);
},
{
closed = 1;
nodes = (
(191,72,o),
(162,34,o),
(155,10,cs),
(146,-19,o),
(168,-29,o),
(229,14,cs),
(277,48,o),
(327,94,o),
(368,150,cs),
(421,224,o),
(459,314,o),
(455,415,cs),
(451,508,o),
(412,610,o),
(316,715,cs),
(302,731,o),
(205,546,o),
(220,529,cs),
(260,484,o),
(290,443,o),
(310,406,cs),
(327,376,o),
(337,348,o),
(343,322,cs),
(379,167,o),
(239,105,o),
(237,104,cs)
);
},
{
closed = 1;
nodes = (
(301,591,o),
(361,763,o),
(294,698,cs),
(254,659,o),
(166,543,o),
(101,416,cs),
(42,300,o),
(0,175,o),
(30,88,cs),
(47,37,o),
(90,-1,o),
(167,-15,cs),
(204,-22,o),
(361,119,o),
(317,127,cs),
(219,145,o),
(174,191,o),
(160,247,cs),
(147,299,o),
(160,358,o),
(179,410,cs),
(206,481,o),
(244,536,o),
(244,536,cs)
);
}
);
width = 554;
}
);
unicode = 81;
},
{
glyphname = R;
lastChange = "2023-12-06 21:51:48 +0000";
layers = (
{
guides = (
{
angle = 180;
pos = (362,360);
},
{
pos = (208,564);
}
);
layerId = m01;
shapes = (
{
closed = 1;
nodes = (
(204,621,o),
(133,470,o),
(135,421,cs),
(137,362,o),
(174,277,o),
(222,199,cs),
(296,78,o),
(395,-27,o),
(428,3,cs),
(453,26,o),
(509,195,o),
(478,167,cs),
(450,141,o),
(371,228,o),
(305,333,cs),
(252,418,o),
(207,515,o),
(205,575,cs)
);
},
{
closed = 1;
nodes = (
(44,143,o),
(-12,-27,o),
(19,2,cs),
(39,21,o),
(76,30,o),
(109,27,cs),
(131,25,o),
(152,16,o),
(164,0,cs),
(179,-19,o),
(241,150,o),
(228,168,cs),
(211,190,o),
(178,200,o),
(145,197,cs),
(117,195,o),
(89,185,o),
(69,166,cs)
);
},
{
closed = 1;
nodes = (
(203,642,o),
(110,560,o),
(106,462,cs),
(98,287,o),
(104,300,o),
(84,63,cs),
(81,37,o),
(105,41,o),
(127,56,cs),
(145,68,o),
(161,87,o),
(162,105,cs),
(184,358,o),
(190,373,o),
(198,540,cs)
);
},
{
closed = 1;
nodes = (
(245,295,o),
(242,276,o),
(251,270,cs),
(266,261,o),
(308,283,o),
(344,332,cs),
(444,466,o),
(466,559,o),
(445,620,cs),
(409,723,o),
(251,734,o),
(141,695,cs),
(117,687,o),
(26,530,o),
(55,541,cs),
(198,591,o),
(309,565,o),
(325,485,cs),
(333,445,o),
(317,392,o),
(270,328,cs)
);
}
);
width = 527;
}
);
unicode = 82;
},
{
glyphname = S;
lastChange = "2023-12-06 21:51:48 +0000";
layers = (
{
layerId = m01;
shapes = (
{
closed = 1;
nodes = (
(265,418,o),
(389,525,o),
(415,574,cs),
(434,613,o),
(421,671,o),
(381,699,cs),
(343,725,o),
(282,725,o),
(203,660,cs),
(134,603,o),
(93,526,o),
(169,588,cs),
(192,607,o),
(240,591,o),
(270,560,cs),
(294,536,o),
(308,502,o),
(291,470,cs)
);
},
{
closed = 1;
nodes = (
(204,663,o),
(78,551,o),
(60,509,cs),
(16,409,o),
(93,359,o),
(162,294,cs),
(227,234,o),
(302,188,o),
(260,86,cs),
(245,49,o),
(370,163,o),
(386,202,cs),
(438,326,o),
(349,356,o),
(284,416,cs),
(215,479,o),
(150,539,o),
(186,623,cs)
);
},
{
closed = 1;
nodes = (
(155,274,o),
(27,159,o),
(10,117,cs),
(-4,82,o),
(13,28,o),
(55,1,cs),
(95,-25,o),
(158,-26,o),
(235,40,cs),
(305,99,o),
(340,171,o),
(263,106,cs),
(249,94,o),
(206,107,o),
(172,133,cs),
(143,156,o),
(121,190,o),
(136,227,cs)
);
}
);
width = 434;
}
);
unicode = 83;
},
{
glyphname = T;
lastChange = "2023-12-06 21:51:48 +0000";
layers = (
{
layerId = m01;
shapes = (
{
closed = 1;
nodes = (
(427,565,o),
(487,733,o),
(440,710,cs),
(412,697,o),
(331,706,o),
(251,709,cs),
(181,712,o),
(113,711,o),
(85,686,cs),
(61,665,o),
(18,494,o),
(43,516,cs),
(72,541,o),
(158,536,o),
(239,534,cs),
(300,532,o),
(359,532,o),
(388,546,cs)
);
},
{
closed = 1;
nodes = (
(347,628,o),
(296,646,o),
(263,602,cs),
(139,443,o),
(78,262,o),
(70,164,cs),
(61,53,o),
(126,-31,o),
(210,-14,cs),
(243,-7,o),
(374,106,o),
(336,98,cs),
(274,85,o),
(192,177,o),
(200,280,cs),
(205,336,o),
(229,475,o),
(311,582,cs)
);
}
);
width = 422;
}
);
unicode = 84;
},
{
glyphname = U;
lastChange = "2023-12-06 21:51:48 +0000";
layers = (
{
layerId = m01;
shapes = (
{
closed = 1;
nodes = (
(403,365,o),
(392,373,o),
(381,373,cs),
(372,372,o),
(363,367,o),
(362,355,cs),
(335,114,o),
(263,124,o),
(251,124,cs),
(202,120,o),
(190,203,o),
(199,293,cs),
(210,394,o),
(219,495,o),
(229,596,cs),
(236,664,o),
(204,723,o),
(152,706,cs),
(119,695,o),
(-3,565,o),
(38,578,cs),
(82,593,o),
(89,550,o),
(85,502,cs),
(74,401,o),
(65,300,o),
(55,199,cs),
(44,96,o),
(107,-23,o),
(203,-16,cs),
(327,-6,o),
(387,220,o),
(402,351,cs)
);
},
{
closed = 1;
nodes = (
(425,-1,o),
(541,117,o),
(513,117,cs),
(471,117,o),
(473,199,o),
(482,293,cs),
(493,394,o),
(503,495,o),
(513,596,cs),
(520,664,o),
(487,723,o),
(435,706,cs),
(402,695,o),
(280,565,o),
(321,578,cs),
(365,593,o),
(374,550,o),
(369,502,cs),
(358,401,o),
(348,300,o),
(338,199,cs),
(326,88,o),
(348,-1,o),
(401,-1,cs)
);
}
);
width = 557;
}
);
unicode = 85;
},
{
glyphname = V;
lastChange = "2023-12-06 22:03:16 +0000";
layers = (
{
layerId = m01;
shapes = (
{
closed = 1;
nodes = (
(499,646,o),
(416,627,o),
(410,607,cs),
(351,408,o),
(261,128,o),
(247,39,cs),
(243,15,o),
(336,105,o),
(339,125,cs),
(349,188,o),
(439,442,o),
(492,623,cs)
);
},
{
closed = 1;
nodes = (
(533,572,o),
(587,740,o),
(556,711,cs),
(537,694,o),
(505,684,o),
(474,686,cs),
(449,687,o),
(425,695,o),
(411,713,cs),
(397,731,o),
(332,564,o),
(347,545,cs),
(363,525,o),
(392,515,o),
(423,515,cs),
(453,516,o),
(484,527,o),
(506,547,cs)
);
},
{
closed = 1;
nodes = (
(248,6,o),
(372,144,o),
(321,121,cs),
(314,117,o),
(288,249,o),
(262,387,cs),
(244,480,o),
(227,576,o),
(215,635,cs),
(205,689,o),
(158,721,o),
(124,711,cs),
(92,701,o),
(-31,571,o),
(8,583,cs),
(46,595,o),
(77,563,o),
(87,511,cs),
(98,448,o),
(115,332,o),
(133,225,cs),
(156,93,o),
(181,-25,o),
(203,-15,cs)
);
}
);
width = 525;
}
);
unicode = 86;
},
{
glyphname = W;
lastChange = "2023-12-06 21:51:48 +0000";
layers = (
{
layerId = m01;
shapes = (
{
closed = 1;
nodes = (
(397,-9,o),
(435,22,o),
(468,55,cs),
(498,86,o),
(525,119,o),
(520,127,cs),
(494,174,o),
(483,287,o),
(473,401,cs),
(461,541,o),
(451,682,o),
(419,711,cs),
(413,717,o),
(383,695,o),
(355,668,cs),
(322,636,o),
(291,598,o),
(299,591,cs),
(322,570,o),
(331,473,o),
(339,362,cs),
(350,223,o),
(358,62,o),
(392,1,cs)
);
},
{
closed = 1;
nodes = (
(694,641,o),
(604,603,o),
(595,578,cs),
(575,520,o),
(556,459,o),
(538,400,cs),
(482,214,o),
(440,47,o),
(439,42,cs),
(431,14,o),
(518,97,o),
(525,122,cs),
(527,129,o),
(556,224,o),
(598,353,cs),
(623,432,o),
(653,522,o),
(685,614,cs)
);
},
{
closed = 1;
nodes = (
(447,647,o),
(356,607,o),
(348,584,cs),
(308,480,o),
(203,77,o),
(203,77,cs),
(154,16,o),
(217,54,o),
(261,109,cs),
(297,154,o),
(407,542,o),
(436,618,cs)
);
},
{
closed = 1;
nodes = (
(148,-19,o),
(276,109,o),
(269,128,cs),
(248,187,o),
(242,294,o),
(236,399,cs),
(226,566,o),
(216,731,o),
(146,709,cs),
(134,706,o),
(109,685,o),
(85,662,cs),
(48,625,o),
(14,581,o),
(38,589,cs),
(86,603,o),
(96,504,o),
(101,378,cs),
(106,249,o),
(108,93,o),
(141,2,cs)
);
},
{
closed = 1;
nodes = (
(719,573,o),
(773,742,o),
(742,712,cs),
(723,694,o),
(686,684,o),
(653,687,cs),
(628,689,o),
(606,697,o),
(593,714,cs),
(579,732,o),
(515,566,o),
(529,546,cs),
(544,526,o),
(573,516,o),
(603,516,cs),
(636,516,o),
(670,527,o),
(692,548,cs)
);
}
);
width = 696;
}
);
unicode = 87;
},
{
glyphname = X;
lastChange = "2023-12-06 21:51:48 +0000";
layers = (
{
layerId = m01;
shapes = (
{
closed = 1;
nodes = (
(476,612,o),
(381,596,o),
(365,572,cs),
(357,560,o),
(305,476,o),
(249,384,cs),
(176,263,o),
(95,130,o),
(95,130,cs),
(80,105,o),
(176,124,o),
(189,146,cs),
(195,156,o),
(243,235,o),
(297,323,cs),
(364,435,o),
(442,563,o),
(459,588,cs)
);
},
{
closed = 1;
nodes = (
(385,-10,o),
(414,21,o),
(438,53,cs),
(468,93,o),
(492,134,o),
(472,127,cs),
(441,116,o),
(384,267,o),
(324,419,cs),
(263,577,o),
(198,735,o),
(156,713,cs),
(143,706,o),
(120,681,o),
(99,653,cs),
(64,609,o),
(35,560,o),
(60,573,cs),
(92,590,o),
(155,418,o),
(220,255,cs),
(277,110,o),
(335,-28,o),
(372,-15,cs)
);
},
{
closed = 1;
nodes = (
(85,-47,o),
(198,91,o),
(200,122,cs),
(201,145,o),
(188,174,o),
(170,198,cs),
(150,224,o),
(125,245,o),
(106,250,cs),
(88,255,o),
(-24,113,o),
(-2,108,cs),
(9,105,o),
(29,86,o),
(48,64,cs),
(69,39,o),
(87,8,o),
(86,-12,cs)
);
},
{
closed = 1;
nodes = (
(454,448,o),
(565,591,o),
(543,596,cs),
(527,601,o),
(502,625,o),
(482,652,cs),
(466,674,o),
(454,698,o),
(455,716,cs),
(456,749,o),
(343,616,o),
(341,582,cs),
(340,560,o),
(353,534,o),
(370,510,cs),
(390,482,o),
(417,458,o),
(435,454,cs)
);
}
);
width = 541;
}
);
unicode = 88;
},
{
glyphname = Y;
lastChange = "2023-12-06 21:51:48 +0000";
layers = (
{
layerId = m01;
shapes = (
{
closed = 1;
nodes = (
(512.919,673.592,o),
(424.509,656.178,o),
(405.912,596.667,cs),
(401.972,584.058,o),
(169.131,127.519,o),
(161.913,113.349,cs),
(131.062,52.787,o),
(211.466,50.539,o),
(242.087,110.651,cs),
(243.688,113.795,o),
(483.382,579.073,o),
(494.088,613.333,cs)
);
},
{
closed = 1;
nodes = (
(530.02,571.849,o),
(584.481,740.152,o),
(552.92,711.018,cs),
(534,694,o),
(502,684,o),
(471,686,cs),
(446,687,o),
(422,695,o),
(408.087,712.573,cs),
(393.732,731.095,o),
(329.215,564.393,o),
(343.913,545.427,cs),
(360,525,o),
(388,515,o),
(417,515,cs),
(448,515,o),
(481,526,o),
(503.08,546.982,cs)
);
},
{
closed = 1;
nodes = (
(271.314,335.877,o),
(379.573,461.293,o),
(326.211,433.17,cs),
(299,419,o),
(274,488,o),
(247,561,cs),
(217,641,o),
(185,725,o),
(145.612,709.214,cs),
(131,703,o),
(101,677,o),
(75,650,cs),
(38,612,o),
(9,573,o),
(34.388,582.786,cs),
(65,595,o),
(91,501,o),
(123,419,cs),
(150,349,o),
(182,289,o),
(223.789,310.83,cs)
);
},
{
closed = 1;
nodes = (
(112.863,142.889,o),
(56.888,-26.811,o),
(88.08,1.982,cs),
(106,19,o),
(138,28,o),
(168,28,cs),
(194,27,o),
(219,18,o),
(232.913,0.427,cs),
(247.978,-19.01,o),
(310.366,150.438,o),
(297.087,167.573,cs),
(282,187,o),
(256,197,o),
(228,198,cs),
(196,199,o),
(162,188,o),
(137.92,166.018,cs)
);
}
);
width = 513;
}
);
unicode = 89;
},
{
glyphname = Z;
lastChange = "2023-12-06 21:51:48 +0000";
layers = (
{
layerId = m01;
shapes = (
{
closed = 1;
nodes = (
(22,122,o),
(-25,-40,o),
(30,6,cs),
(69,40,o),
(127,24,o),
(187,10,cs),
(246,-3,o),
(307,-15,o),
(354,25,cs),
(377,44,o),
(423,218,o),
(396,195,cs),
(349,156,o),
(293,175,o),
(234,189,cs),
(179,200,o),
(122,207,o),
(66,160,cs)
);
},
{
closed = 1;
nodes = (
(97,657,o),
(42,487,o),
(76,524,cs),
(99,549,o),
(150,545,o),
(209,539,cs),
(270,533,o),
(341,524,o),
(399,540,cs),
(420,546,o),
(481,717,o),
(457,710,cs),
(402,694,o),
(338,703,o),
(279,710,cs),
(215,717,o),
(157,722,o),
(124,686,cs)
);
},
{
closed = 1;
nodes = (
(433,604,o),
(335,590,o),
(326,568,cs),
(302,509,o),
(255,436,o),
(206,364,cs),
(138,264,o),
(66,165,o),
(46,100,cs),
(39,78,o),
(138,94,o),
(144,114,cs),
(161,168,o),
(218,250,o),
(278,338,cs),
(335,422,o),
(395,510,o),
(424,582,cs)
);
},
{
closed = 1;
nodes = (
(135,444,o),
(76,273,o),
(104,292,cs),
(124,306,o),
(162,291,o),
(202,274,cs),
(242,258,o),
(285,241,o),
(312,252,cs),
(334,261,o),
(394,431,o),
(368,420,cs),
(349,412,o),
(319,423,o),
(287,436,cs),
(239,455,o),
(188,480,o),
(158,460,cs)
);
}
);
width = 467;
}
);
unicode = 90;
},
{
glyphname = a;
lastChange = "2023-12-07 09:31:51 +0000";
layers = (
{
background = {
shapes = (
{
closed = 1;
nodes = (
);
}
);
};
guides = (
{
pos = (289,715);
}
);
layerId = m01;
shapes = (
{
closed = 1;
nodes = (
(289,-7,o),
(326,24,o),
(358,58,cs),
(393,93,o),
(422,132,o),
(409,136,cs),
(374,147,o),
(387,247,o),
(405,418,cs),
(410,465,o),
(415,517,o),
(420,574,cs),
(424,616,o),
(412,682,o),
(373,705,cs),
(344,722,o),
(299,714,o),
(234,650,cs),
(213,630,o),
(190,604,o),
(165,571,cs),
(99,486,o),
(145,481,o),
(213,569,cs),
(214,570,o),
(239,575,o),
(259,557,cs),
(276,542,o),
(289,511,o),
(284,450,cs),
(280,407,o),
(276,366,o),
(272,329,cs),
(250,129,o),
(231,11,o),
(279,-4,cs)
);
},
{
closed = 1;
nodes = (
(54,398,o),
(-7,228,o),
(14,228,cs),
(146,229,o),
(279,229,o),
(411,229,cs),
(430,229,o),
(492,399,o),
(471,399,cs),
(339,398,o),
(206,398,o),
(74,398,cs)
);
},
{
closed = 1;
nodes = (
(261,667,o),
(167,592,o),
(132,526,cs),
(117,498,o),
(100,454,o),
(93,407,cs),
(88,373,o),
(83,332,o),
(77,288,cs),
(67,204,o),
(57,106,o),
(45,16,cs),
(42,-12,o),
(67,-4,o),
(92,16,cs),
(113,32,o),
(134,58,o),
(137,78,cs),
(147,157,o),
(156,240,o),
(165,316,cs),
(173,381,o),
(180,441,o),
(187,489,cs),
(194,536,o),
(221,592,o),
(222,594,cs)
);
}
);
width = 500;
}
);
unicode = 97;
},
{
glyphname = b;
lastChange = "2023-12-06 21:51:48 +0000";
layers = (
{
layerId = m01;
shapes = (
{
closed = 1;
nodes = (
(34,207,o),
(47,101,o),
(67,184,cs),
(88,271,o),
(209,317,o),
(291,297,cs),
(352,282,o),
(392,231,o),
(355,133,cs),
(333,76,o),
(443,196,o),
(463,249,cs),
(497,339,o),
(467,402,o),
(409,435,cs),
(300,498,o),
(93,453,o),
(51,278,cs)
);
},
{
closed = 1;
nodes = (
(175,397,o),
(154,348,o),
(165,332,cs),
(171,322,o),
(189,323,o),
(219,345,cs),
(280,390,o),
(325,432,o),
(357,471,cs),
(447,579,o),
(437,660,o),
(386,696,cs),
(342,727,o),
(265,724,o),
(194,676,cs),
(138,639,o),
(86,573,o),
(54,473,cs),
(20,364,o),
(98,342,o),
(134,455,cs),
(146,494,o),
(173,522,o),
(201,538,cs),
(237,558,o),
(275,561,o),
(293,548,cs),
(315,533,o),
(305,493,o),
(221,431,cs)
);
},
{
closed = 1;
nodes = (
(139,473,o),
(123,492,o),
(103,497,cs),
(84,502,o),
(62,495,o),
(55,469,cs),
(43,425,o),
(35,364,o),
(29,305,cs),
(24,243,o),
(21,183,o),
(21,145,cs),
(21,116,o),
(46,105,o),
(69,109,cs),
(89,113,o),
(107,128,o),
(107,153,cs),
(107,188,o),
(109,257,o),
(114,323,cs),
(118,370,o),
(124,417,o),
(133,449,cs)
);
},
{
closed = 1;
nodes = (
(490,334,o),
(465,354,o),
(431,257,cs),
(401,174,o),
(301,141,o),
(223,152,cs),
(149,162,o),
(94,212,o),
(138,295,cs),
(176,368,o),
(79,277,o),
(40,203,cs),
(-20,90,o),
(61,-9,o),
(172,-14,cs),
(269,-18,o),
(388,48,o),
(455,237,cs)
);
}
);
width = 497;
}
);
unicode = 98;
},
{
glyphname = c;
lastChange = "2023-12-06 21:51:48 +0000";
layers = (
{
layerId = m01;
shapes = (
{
closed = 1;
nodes = (
(334,455,o),
(446,596,o),
(441,619,cs),
(435,642,o),
(408,698,o),
(358,712,cs),
(313,725,o),
(249,704,o),
(167,594,cs),
(119,530,o),
(83,466,o),
(59,406,cs),
(7,277,o),
(4,163,o),
(35,86,cs),
(83,-32,o),
(208,-62,o),
(347,82,cs),
(391,128,o),
(415,177,o),
(414,198,cs),
(413,217,o),
(392,215,o),
(351,172,cs),
(276,95,o),
(205,149,o),
(170,241,cs),
(137,328,o),
(136,449,o),
(193,526,cs),
(207,545,o),
(243,559,o),
(274,549,cs),
(297,541,o),
(318,521,o),
(327,481,cs)
);
}
);
width = 456;
}
);
unicode = 99;
},
{
glyphname = d;
lastChange = "2023-12-06 21:51:48 +0000";
layers = (
{
layerId = m01;
shapes = (
{
closed = 1;
nodes = (
(143,720,o),
(119,682,o),
(100,642,cs),
(81,601,o),
(66,557,o),
(75,553,cs),
(175,497,o),
(242,440,o),
(286,389,cs),
(366,296,o),
(371,222,o),
(366,213,cs),
(316,111,o),
(388,121,o),
(438,223,cs),
(490,329,o),
(481,418,o),
(425,499,cs),
(372,577,o),
(277,647,o),
(151,715,cs)
);
},
{
closed = 1;
nodes = (
(178,591,o),
(102,567,o),
(100,547,cs),
(87,395,o),
(73,243,o),
(60,91,cs),
(58,69,o),
(134,92,o),
(136,113,cs),
(149,265,o),
(163,417,o),
(176,569,cs)
);
},
{
closed = 1;
nodes = (
(58,232,o),
(-4,48,o),
(13,37,cs),
(50,12,o),
(94,-9,o),
(144,-12,cs),
(219,-16,o),
(306,22,o),
(395,152,cs),
(451,232,o),
(414,281,o),
(357,198,cs),
(335,167,o),
(286,150,o),
(222,160,cs),
(179,167,o),
(129,186,o),
(75,221,cs)
);
}
);
width = 502;
}
);
unicode = 100;
},
{
glyphname = e;
lastChange = "2023-12-06 22:02:10 +0000";
layers = (
{
layerId = m01;
shapes = (
{
closed = 1;
nodes = (
(311,455,o),
(438,583,o),
(431,602,cs),
(393,705,o),
(318,730,o),
(267,706,cs),
(153,653,o),
(100,494,o),
(72,343,cs),
(47,212,o),
(42,87,o),
(33,41,cs),
(22,-16,o),
(42,-1,o),
(44,0,cs),
(89,15,o),
(121,23,o),
(171,14,cs),
(231,4,o),
(312,-27,o),
(377,26,cs),
(419,61,o),
(460,227,o),
(409,186,cs),
(386,167,o),
(287,174,o),
(231,184,cs),
(187,191,o),
(151,193,o),
(106,176,c),
(109,163,o),
(113,149,o),
(117,135,c),
(133,217,o),
(146,289,o),
(157,349,cs),
(179,472,o),
(194,543,o),
(217,554,cs),
(243,566,o),
(267,572,o),
(303,476,cs)
);
},
{
closed = 1;
nodes = (
(63,438,o),
(3,268,o),
(24,268,cs),
(132,269,o),
(240,269,o),
(347,269,cs),
(367,269,o),
(429,439,o),
(407,439,cs),
(299,438,o),
(191,438,o),
(84,438,cs)
);
}
);
width = 473;
}
);
unicode = 101;
},
{
glyphname = f;
lastChange = "2023-12-06 21:51:48 +0000";
layers = (
{
layerId = m01;
shapes = (
{
closed = 1;
nodes = (
(439,604,o),
(475,759,o),
(431,701,cs),
(410,674,o),
(347,659,o),
(305,659,cs),
(250,659,o),
(188,681,o),
(155,710,cs),
(125,738,o),
(76,578,o),
(76,574,cs),
(58,384,o),
(40,201,o),
(23,18,cs),
(18,-28,o),
(98,19,o),
(101,60,cs),
(121,271,o),
(141,480,o),
(160,684,c),
(134,638,o),
(107,593,o),
(81,548,c),
(120,511,o),
(188,489,o),
(245,489,cs),
(299,489,o),
(348,486,o),
(399,553,cs)
);
},
{
closed = 1;
nodes = (
(339,226,o),
(389,399,o),
(368,400,cs),
(270,400,o),
(171,401,o),
(73,402,cs),
(54,402,o),
(4,229,o),
(25,228,cs),
(123,228,o),
(222,227,o),
(320,226,cs)
);
}
);
width = 431;
}
);
unicode = 102;
},
{
glyphname = g;
lastChange = "2023-12-06 21:51:48 +0000";
layers = (
{
layerId = m01;
shapes = (
{
closed = 1;
nodes = (
(281,350,o),
(193,218,o),
(254,266,cs),
(266,276,o),
(294,284,o),
(316,275,cs),
(335,268,o),
(349,249,o),
(346,209,cs),
(344,168,o),
(336,126,o),
(331,85,cs),
(323,14,o),
(347,-5,o),
(355,-14,cs),
(368,-29,o),
(496,98,o),
(483,112,cs),
(477,119,o),
(465,128,o),
(473,193,cs),
(477,234,o),
(485,275,o),
(488,317,cs),
(490,358,o),
(468,391,o),
(436,406,cs),
(406,420,o),
(366,418,o),
(330,390,cs)
);
},
{
closed = 1;
nodes = (
(366,482,o),
(493,609,o),
(483,626,cs),
(469,650,o),
(440,699,o),
(391,710,cs),
(357,718,o),
(315,708,o),
(261,659,cs),
(197,601,o),
(138,482,o),
(211,549,cs),
(236,572,o),
(264,573,o),
(289,562,cs),
(316,550,o),
(340,526,o),
(355,500,cs)
);
},
{
closed = 1;
nodes = (
(274,627,o),
(203,619,o),
(134,532,cs),
(34,409,o),
(7,261,o),
(25,150,cs),
(49,1,o),
(156,-81,o),
(284,48,cs),
(323,87,o),
(434,317,o),
(435,321,cs),
(443,344,o),
(430,351,o),
(413,347,cs),
(396,342,o),
(375,326,o),
(367,303,cs),
(330,191,o),
(294,156,o),
(294,156,cs),
(219,81,o),
(156,175,o),
(145,297,cs),
(138,381,o),
(154,477,o),
(206,542,cs)
);
}
);
width = 529;
}
);
unicode = 103;
},
{
glyphname = h;
lastChange = "2023-12-06 21:51:48 +0000";
layers = (
{
layerId = m01;
shapes = (
{
closed = 1;
nodes = (
(84,437,o),
(23,267,o),
(44,267,cs),
(188,268,o),
(333,268,o),
(477,268,cs),
(496,268,o),
(558,438,o),
(537,438,cs),
(393,437,o),
(248,437,o),
(104,437,cs)
);
},
{
closed = 1;
nodes = (
(205,726,o),
(75,603,o),
(85,584,cs),
(102,552,o),
(103,548,o),
(98,500,cs),
(87,369,o),
(79,237,o),
(69,106,cs),
(64,39,o),
(78,20,o),
(107,0,cs),
(123,-11,o),
(250,116,o),
(233,128,cs),
(210,144,o),
(206,153,o),
(211,214,cs),
(221,345,o),
(228,477,o),
(240,608,cs),
(244,662,o),
(234,674,o),
(215,708,cs)
);
},
{
closed = 1;
nodes = (
(473,726,o),
(343,603,o),
(353,584,cs),
(370,553,o),
(370,548,o),
(366,500,cs),
(356,369,o),
(347,237,o),
(337,106,cs),
(332,39,o),
(346,20,o),
(375,0,cs),
(391,-11,o),
(518,116,o),
(501,128,cs),
(478,144,o),
(474,153,o),
(479,214,cs),
(489,345,o),
(498,477,o),
(508,608,cs),
(512,662,o),
(502,673,o),
(483,708,cs)
);
}
);
width = 581;
}
);
unicode = 104;
},
{
glyphname = i;
lastChange = "2023-12-06 21:51:48 +0000";
layers = (
{
layerId = m01;
shapes = (
{
closed = 1;
nodes = (
(187,726,o),
(57,603,o),
(67,584,cs),
(84,553,o),
(85,548,o),
(80,490,cs),
(70,362,o),
(61,234,o),
(51,106,cs),
(46,39,o),
(60,20,o),
(89,0,cs),
(105,-11,o),
(232,116,o),
(215,128,cs),
(192,144,o),
(188,153,o),
(193,214,cs),
(202,342,o),
(211,470,o),
(222,598,cs),
(227,662,o),
(216,673,o),
(197,708,cs)
);
}
);
width = 273;
}
);
unicode = 105;
},
{
glyphname = j;
lastChange = "2023-12-06 21:51:48 +0000";
layers = (
{
layerId = m01;
shapes = (
{
closed = 1;
nodes = (
(149,307,o),
(20,198,o),
(-2,153,cs),
(-30,96,o),
(-10,34,o),
(35,3,cs),
(88,-32,o),
(173,-26,o),
(254,77,cs),
(303,141,o),
(308,230,o),
(254,161,cs),
(224,122,o),
(175,116,o),
(142,135,cs),
(110,154,o),
(94,196,o),
(124,257,cs)
);
},
{
closed = 1;
nodes = (
(435,741,o),
(299,652,o),
(274,597,cs),
(263,572,o),
(263,566,o),
(257,506,cs),
(247,379,o),
(239,253,o),
(229,126,cs),
(221,13,o),
(279,132,o),
(278,131,cs),
(226,99,o),
(123,-24,o),
(186,15,cs),
(271,67,o),
(368,203,o),
(371,234,cs),
(380,361,o),
(388,488,o),
(399,614,cs),
(404,676,o),
(405,674,o),
(410,685,cs)
);
},
{
closed = 1;
nodes = (
(354,618,o),
(419,727,o),
(366,685,cs),
(334,660,o),
(294,658,o),
(259,666,cs),
(224,675,o),
(195,695,o),
(187,713,cs),
(178,735,o),
(75,590,o),
(85,567,cs),
(92,550,o),
(123,532,o),
(167,530,cs),
(207,528,o),
(258,541,o),
(308,581,cs)
);
}
);
width = 433;
}
);
unicode = 106;
},
{
glyphname = k;
lastChange = "2023-12-06 21:51:48 +0000";
layers = (
{
layerId = m01;
shapes = (
{
closed = 1;
nodes = (
(206,373,o),
(99,236,o),
(144,260,cs),
(206,292,o),
(255,284,o),
(293,256,cs),
(365,202,o),
(393,74,o),
(379,6,cs),
(371,-33,o),
(491,97,o),
(499,132,cs),
(514,205,o),
(485,353,o),
(398,402,cs),
(358,424,o),
(308,426,o),
(244,392,cs)
);
},
{
closed = 1;
nodes = (
(157,721,o),
(26,591,o),
(42,578,cs),
(47,575,o),
(65,551,o),
(61,496,cs),
(51,370,o),
(41,244,o),
(32,118,cs),
(26,48,o),
(33,20,o),
(69,0,cs),
(89,-11,o),
(220,140,o),
(199,152,cs),
(185,160,o),
(172,170,o),
(176,230,cs),
(186,356,o),
(196,482,o),
(205,608,cs),
(211,677,o),
(183,701,o),
(172,710,cs)
);
},
{
closed = 1;
nodes = (
(537,712,o),
(510,714,o),
(480,711,cs),
(456,707,o),
(430,700,o),
(421,690,cs),
(393,658,o),
(138,320,o),
(134,315,cs),
(119,296,o),
(121,282,o),
(131,274,cs),
(146,262,o),
(182,267,o),
(204,295,cs),
(210,303,o),
(511,682,o),
(525,698,cs)
);
}
);
width = 538;
}
);
unicode = 107;
},
{
glyphname = l;
lastChange = "2023-12-06 21:51:48 +0000";
layers = (
{
layerId = m01;
shapes = (
{
closed = 1;
nodes = (
(167,721,o),
(36,591,o),
(52,578,cs),
(57,575,o),
(75,551,o),
(71,496,cs),
(61,370,o),
(51,244,o),
(42,118,cs),
(37,54,o),
(37,0,o),
(82,0,cs),
(108,0,o),
(239,152,o),
(206,152,cs),
(183,152,o),
(182,165,o),
(186,230,cs),
(196,356,o),
(206,482,o),
(215,608,cs),
(221,677,o),
(193,701,o),
(182,710,cs)
);
},
{
closed = 1;
nodes = (
(151,125,o),
(75,-7,o),
(122,30,cs),
(148,52,o),
(179,58,o),
(207,54,cs),
(251,49,o),
(290,22,o),
(299,1,cs),
(308,-22,o),
(410,127,o),
(401,147,cs),
(394,166,o),
(356,193,o),
(305,196,cs),
(270,198,o),
(229,188,o),
(188,156,cs)
);
}
);
width = 422;
}
);
unicode = 108;
},
{
glyphname = m;
lastChange = "2023-12-06 21:51:48 +0000";
layers = (
{
layerId = m01;
shapes = (
{
closed = 1;
nodes = (
(210,719,o),
(82,592,o),
(99,580,cs),
(129,558,o),
(162,434,o),
(186,298,cs),
(205,194,o),
(219,82,o),
(224,4,cs),
(225,-23,o),
(354,103,o),
(352,128,cs),
(348,210,o),
(333,330,o),
(313,439,cs),
(289,569,o),
(258,685,o),
(225,708,cs)
);
},
{
closed = 1;
nodes = (
(-16,-25,o),
(61,10,o),
(72,54,cs),
(99,161,o),
(117,267,o),
(130,357,cs),
(151,500,o),
(157,604,o),
(158,609,cs),
(161,647,o),
(91,601,o),
(88,567,cs),
(88,566,o),
(81,484,o),
(63,367,cs),
(48,268,o),
(26,145,o),
(-4,24,cs)
);
},
{
closed = 1;
nodes = (
(207,56,o),
(299,115,o),
(324,165,cs),
(350,218,o),
(373,271,o),
(393,321,cs),
(460,489,o),
(494,629,o),
(494,631,cs),
(506,677,o),
(408,600,o),
(398,559,cs),
(396,554,o),
(378,478,o),
(342,374,cs),
(316,298,o),
(281,206,o),
(236,115,cs)
);
},
{
closed = 1;
nodes = (
(519,706,o),
(391,576,o),
(419,576,cs),
(438,576,o),
(435,427,o),
(438,278,cs),
(441,164,o),
(447,50,o),
(470,2,cs),
(479,-17,o),
(607,110,o),
(598,128,cs),
(578,172,o),
(571,267,o),
(568,367,cs),
(564,529,o),
(569,706,o),
(541,706,cs)
);
}
);
width = 643;
}
);
unicode = 109;
},
{
glyphname = n;
lastChange = "2023-12-06 21:58:49 +0000";
layers = (
{
layerId = m01;
shapes = (
{
closed = 1;
nodes = (
(179,710,o),
(147,684,o),
(116,655,cs),
(86,625,o),
(58,591,o),
(63,582,cs),
(106,506,o),
(154,395,o),
(205,289,cs),
(264,166,o),
(325,50,o),
(381,0,cs),
(395,-13,o),
(516,107,o),
(501,120,cs),
(468,149,o),
(477,149,o),
(513,598,cs),
(518,661,o),
(507,673,o),
(489,707,cs),
(484,715,o),
(459,698,o),
(432,674,cs),
(397,643,o),
(360,601,o),
(365,591,cs),
(383,559,o),
(384,555,o),
(379,496,cs),
(343,39,o),
(340,37,o),
(381,0,cs),
(395,-13,o),
(516,107,o),
(501,120,cs),
(443,171,o),
(380,296,o),
(319,424,cs),
(271,525,o),
(225,629,o),
(185,700,cs)
);
},
{
closed = 1;
nodes = (
(32,-26,o),
(111,14,o),
(119,58,cs),
(123,81,o),
(132,162,o),
(140,254,cs),
(155,406,o),
(170,587,o),
(170,587,cs),
(174,632,o),
(95,588,o),
(92,545,cs),
(91,536,o),
(78,385,o),
(65,246,cs),
(55,144,o),
(46,48,o),
(41,22,cs)
);
}
);
width = 559;
}
);
unicode = 110;
},
{
glyphname = o;
lastChange = "2023-12-06 21:59:43 +0000";
layers = (
{
layerId = m01;
shapes = (
{
closed = 1;
nodes = (
(265.325,659.434,o),
(172.892,617.163,o),
(118.74,529.794,cs),
(3,342,o),
(-10,176,o),
(31,77,cs),
(72,-20,o),
(164,-51,o),
(260.379,26.807,cs),
(321.035,75.811,o),
(404.087,248.123,o),
(333.621,191.193,cs),
(259,131,o),
(192,155,o),
(160,225,cs),
(122,303,o),
(128,437,o),
(211.26,572.206,cs)
);
},
{
closed = 1;
nodes = (
(210.034,54.669,o),
(282.573,60,o),
(354.199,159.567,cs),
(384,201,o),
(408,242,o),
(426,282,cs),
(487,414,o),
(483,530,o),
(450,609,cs),
(410,703,o),
(326,743,o),
(254.263,693.894,cs),
(192.123,650.666,o),
(79.811,485.288,o),
(155.737,538.106,cs),
(213,578,o),
(267,535,o),
(299,462,cs),
(337,373,o),
(343,239,o),
(281.801,154.433,cs)
);
}
);
width = 494;
}
);
unicode = 111;
},
{
glyphname = p;
lastChange = "2023-12-06 21:51:48 +0000";
layers = (
{
guides = (
{
pos = (717,374);
},
{
pos = (629,569);
}
);
layerId = m01;
shapes = (
{
closed = 1;
nodes = (
(162,309,o),
(155,287,o),
(165,278,cs),
(178,266,o),
(217,273,o),
(261,311,cs),
(283,330,o),
(303,349,o),
(320,367,cs),
(467,520,o),
(459,647,o),
(392,696,cs),
(339,735,o),
(248,724,o),
(170,637,cs),
(126,588,o),
(86,515,o),
(59,414,cs),
(29,303,o),
(113,302,o),
(143,414,cs),
(180,551,o),
(258,584,o),
(292,555,cs),
(318,533,o),
(319,473,o),
(254,397,cs),
(239,378,o),
(219,358,o),
(195,337,cs)
);
},
{
closed = 1;
nodes = (
(152,448,o),
(75,469,o),
(62,418,cs),
(37,318,o),
(25,26,o),
(25,19,cs),
(22,-26,o),
(101,23,o),
(103,63,cs),
(104,74,o),
(119,315,o),
(140,398,cs)
);
},
{
closed = 1;
nodes = (
(281,316,o),
(349,421,o),
(277,374,cs),
(240,350,o),
(128,373,o),
(116,423,cs),
(107,459,o),
(39,319,o),
(48,285,cs),
(62,231,o),
(110,204,o),
(217,274,cs)
);
}
);
width = 428;
}
);
unicode = 112;
},
{
glyphname = q;
lastChange = "2023-12-06 21:51:48 +0000";
layers = (
{
background = {
shapes = (
{
closed = 1;
nodes = (
);
},
{
closed = 1;
nodes = (
);
}
);
};
layerId = m01;
shapes = (
{
closed = 1;
nodes = (
(251,345,o),
(196,285,o),
(208,260,cs),
(221,234,o),
(362,-9,o),
(362,-9,cs),
(376,-33,o),
(431,27,o),
(418,51,cs),
(410,65,o),
(283,281,o),
(264,320,cs)
);
},
{
closed = 1;
nodes = (
(276,659,o),
(184,617,o),
(130,530,cs),
(19,351,o),
(2,193,o),
(36,94,cs),
(72,-15,o),
(168,-54,o),
(264,24,cs),
(317,66,o),
(412,243,o),
(352,194,cs),
(267,125,o),
(195,158,o),
(165,240,cs),
(135,320,o),
(145,448,o),
(222,572,cs)
);
},
{
closed = 1;
nodes = (
(223,42,o),
(299,82,o),
(366,176,cs),
(487,344,o),
(499,500,o),
(462,601,cs),
(425,701,o),
(340,746,o),
(265,694,cs),
(203,651,o),
(91,485,o),
(167,538,cs),
(230,582,o),
(292,524,o),
(323,434,cs),
(354,345,o),
(353,223,o),
(292,138,cs)
);
}
);
width = 495;
}
);
unicode = 113;
},
{
glyphname = r;
lastChange = "2023-12-06 22:14:44 +0000";
layers = (
{
layerId = m01;
shapes = (
{
closed = 1;
nodes = (
(79,292,o),
(45,160,o),
(97,210,cs),
(156,267,o),
(231,282,o),
(272,240,cs),
(303,208,o),
(313,142,o),
(279,34,cs),
(252,-53,o),
(404,41,o),
(431,124,cs),
(469,246,o),
(455,325,o),
(415,368,cs),
(348,441,o),
(207,416,o),
(123,334,cs)
);
},
{
closed = 1;
nodes = (
(117,272,o),
(180,244,o),
(259,311,cs),
(520,533,o),
(457,708,o),
(331,713,cs),
(241,716,o),
(117,632,o),
(59,414,cs),
(29,303,o),
(113,302,o),
(143,414,cs),
(172,522,o),
(233,564,o),
(273,559,cs),
(326,553,o),
(342,464,o),
(193,337,cs)
);
},
{
closed = 1;
nodes = (
(152,448,o),
(75,469,o),
(62,418,cs),
(37,318,o),
(25,26,o),
(25,19,cs),
(22,-26,o),
(101,23,o),
(103,63,cs),
(104,74,o),
(119,315,o),
(140,398,cs)
);
}
);
width = 503;
}
);
unicode = 114;
},
{
glyphname = s;
lastChange = "2023-12-06 21:51:48 +0000";
layers = (
{
guides = (
{
pos = (271,713);
}
);
layerId = m01;
shapes = (
{
closed = 1;
nodes = (
(50,270,o),
(-16,106,o),
(-3,80,cs),
(11,53,o),
(56,4,o),
(115,-11,cs),
(170,-25,o),
(238,-8,o),
(305,86,cs),
(343,140,o),
(368,184,o),
(383,219,cs),
(435,343,o),
(357,367,o),
(275,420,cs),
(116,524,o),
(147,552,o),
(152,559,cs),
(161,572,o),
(204,571,o),
(250,550,cs),
(290,532,o),
(331,500,o),
(355,447,cs),
(366,422,o),
(429,592,o),
(419,613,cs),
(408,638,o),
(362,693,o),
(302,710,cs),
(251,724,o),
(190,710,o),
(130,625,cs),
(98,579,o),
(75,540,o),
(61,507,cs),
(6,384,o),
(68,344,o),
(151,290,cs),
(311,185,o),
(298,174,o),
(283,152,cs),
(272,136,o),
(227,135,o),
(179,152,cs),
(134,167,o),
(87,198,o),
(63,246,cs)
);
}
);
width = 435;
}
);
unicode = 115;
},
{
glyphname = t;
lastChange = "2023-12-06 22:01:51 +0000";
layers = (
{
layerId = m01;
shapes = (
{
closed = 1;
nodes = (
(440,541,o),
(508,708,o),
(466,701,cs),
(367,684,o),
(154,717,o),
(91,684,cs),
(69,672,o),
(23,500,o),
(47,512,cs),
(100,539,o),
(305,518,o),
(406,535,cs)
);
},
{
closed = 1;
nodes = (
(295,570,o),
(161,443,o),
(170,423,cs),
(183,393,o),
(122,82,o),
(155,2,cs),
(164,-18,o),
(295,113,o),
(287,132,cs),
(256,206,o),
(319,513,o),
(304,549,cs)
);
}
);
width = 449;
}
);
unicode = 116;
},
{
glyphname = u;
lastChange = "2023-12-06 21:53:21 +0000";
layers = (
{
layerId = m01;
shapes = (
{
closed = 1;
nodes = (
(162,721,o),
(26,584,o),
(48,573,cs),
(77,560,o),
(68,400,o),
(46,131,cs),
(41,75,o),
(59,18,o),
(98,-6,cs),
(141,-32,o),
(209,-15,o),
(300,93,cs),
(356,161,o),
(379,244,o),
(318,171,cs),
(275,119,o),
(236,110,o),
(211,133,cs),
(189,153,o),
(178,196,o),
(182,255,cs),
(206,531,o),
(219,694,o),
(180,713,cs)
);
},
{
closed = 1;
nodes = (
(244,75,o),
(297,85,o),
(349,157,cs),
(379,199,o),
(406,260,o),
(413,301,cs),
(437,437,o),
(440,562,o),
(445,696,cs),
(446,743,o),
(355,671,o),
(353,628,cs),
(348,488,o),
(344,360,o),
(319,221,cs),
(307,154,o),
(298,150,o),
(297,149,cs)
);
}
);
width = 455;
}
);
unicode = 117;
},
{
glyphname = v;
lastChange = "2023-12-06 21:51:48 +0000";
layers = (
{
layerId = m01;
shapes = (
{
closed = 1;
nodes = (
(505,744,o),
(421,705,o),
(406,655,cs),
(348,472,o),
(235,101,o),
(222,45,cs),
(213,9,o),
(315,104,o),
(322,133,cs),
(331,171,o),
(436,526,o),
(488,691,cs)
);
},
{
closed = 1;
nodes = (
(190,-27,o),
(323,106,o),
(308,119,cs),
(290,133,o),
(271,144,o),
(257,229,cs),
(245,304,o),
(241,428,o),
(216,599,cs),
(206,666,o),
(190,707,o),
(162,714,cs),
(143,719,o),
(14,591,o),
(38,586,cs),
(50,583,o),
(71,546,o),
(80,481,cs),
(105,316,o),
(101,194,o),
(113,123,cs),
(128,28,o),
(150,5,o),
(174,-15,cs)
);
}
);
width = 475;
}
);
unicode = 118;
},
{
glyphname = w;
lastChange = "2023-12-06 21:51:48 +0000";
layers = (
{
guides = (
{
pos = (390,713);
}
);
layerId = m01;
shapes = (
{
closed = 1;
nodes = (
(365.713,-16.955,o),
(486.251,103.084,o),
(476.577,120.467,cs),
(444,179,o),
(438,321,o),
(431,452,cs),
(426,574,o),
(420,686,o),
(394.104,711.104,cs),
(380.591,724.087,o),
(259.186,605.029,o),
(273.896,590.896,cs),
(302,564,o),
(303,406,o),
(312,257,cs),
(318,151,o),
(328,50,o),
(355.423,1.533,cs)
);
},
{
closed = 1;
nodes = (
(717.929,743.518,o),
(626.967,701.974,o),
(600.75,642.75,cs),
(569,572,o),
(543,504,o),
(520,442,cs),
(437,214,o),
(407,54,o),
(406.494,49.698,cs),
(399.576,17.289,o),
(495.311,119.277,o),
(501.506,148.302,cs),
(503,155,o),
(528,265,o),
(593,440,cs),
(619,511,o),
(651,593,o),
(691.25,683.25,cs)
);
},
{
closed = 1;
nodes = (
(128.713,-16.955,o),
(249.251,103.084,o),
(239.577,120.467,cs),
(208,178,o),
(200,317,o),
(194,446,cs),
(188,570,o),
(182,686,o),
(156.104,711.104,cs),
(142.681,724.259,o),
(21.324,605.176,o),
(35.896,590.896,cs),
(56,571,o),
(62,478,o),
(68,369,cs),
(75,231,o),
(82,67,o),
(118.423,1.533,cs)
);
},
{
closed = 1;
nodes = (
(428.374,636.997,o),
(335.055,611.549,o),
(323.568,586.767,cs),
(289,512,o),
(263,436,o),
(244,366,cs),
(199,206,o),
(189,78,o),
(187.829,72.571,cs),
(182.774,44.495,o),
(233.319,84.485,o),
(238.171,111.429,cs),
(239,114,o),
(277,258,o),
(339,425,cs),
(362,486,o),
(388,550,o),
(416.432,611.233,cs)
);
}
);
width = 656;
}
);
unicode = 119;
},
{
glyphname = x;
lastChange = "2023-12-06 21:51:48 +0000";
layers = (
{
layerId = m01;
shapes = (
{
closed = 1;
nodes = (
(526,681,o),
(517,696,o),
(500,700,cs),
(481,704,o),
(452,696,o),
(435,670,cs),
(424,653,o),
(341,532,o),
(250,402,cs),
(133,232,o),
(3,45,o),
(3,45,cs),
(-16,17,o),
(0,1,o),
(23,1,cs),
(41,1,o),
(63,10,o),
(77,31,cs),
(86,44,o),
(191,195,o),
(295,345,cs),
(393,487,o),
(491,628,o),
(511,658,cs)
);
},
{
closed = 1;
nodes = (
(383,2,o),
(410,30,o),
(435,61,cs),
(466,101,o),
(493,145,o),
(477,142,cs),
(443,137,o),
(377,293,o),
(311,441,cs),
(250,578,o),
(189,707,o),
(152,698,cs),
(141,696,o),
(116,670,o),
(93,641,cs),
(60,599,o),
(30,551,o),
(48,556,cs),
(81,564,o),
(145,416,o),
(210,271,cs),
(272,131,o),
(335,-7,o),
(371,0,cs)
);
}
);
width = 515;
}
);
unicode = 120;
},
{
glyphname = y;
lastChange = "2023-12-07 00:21:17 +0000";
layers = (
{
layerId = m01;
shapes = (
{
closed = 1;
nodes = (
(582,723,o),
(502,729,o),
(465,665,cs),
(457,650,o),
(393,527,o),
(324,394,cs),
(238,228,o),
(144,48,o),
(144,47,cs),
(129,17,o),
(139,2,o),
(158,0,cs),
(179,-1,o),
(211,15,o),
(228,49,cs),
(236,64,o),
(331,249,o),
(416,413,cs),
(478,533,o),
(534,641,o),
(545,659,cs)
);
},
{
closed = 1;
nodes = (
(284,329,o),
(399,457,o),
(351,434,cs),
(320,420,o),
(292,478,o),
(263,545,cs),
(227,628,o),
(189,726,o),
(143,710,cs),
(109,698,o),
(-13,568,o),
(29,582,cs),
(71,597,o),
(105,471,o),
(149,384,cs),
(176,331,o),
(206,292,o),
(243,310,cs)
);
}
);
width = 495;
}
);
unicode = 121;
},
{
glyphname = z;
lastChange = "2023-12-07 00:02:47 +0000";
layers = (
{
layerId = m01;
shapes = (
{
closed = 1;
nodes = (
(-6,117,o),
(-47,-49,o),
(3,-5,cs),
(45,32,o),
(103,46,o),
(161,43,cs),
(219,41,o),
(277,21,o),
(315,-8,cs),
(331,-21,o),
(393,148,o),
(377,160,cs),
(343,187,o),
(288,209,o),
(228,214,cs),
(163,219,o),
(92,204,o),
(35,153,cs)
);
},
{
closed = 1;
nodes = (
(109,736,o),
(44,569,o),
(59,550,cs),
(81,523,o),
(129,504,o),
(184,500,cs),
(250,494,o),
(325,509,o),
(374,552,cs),
(400,575,o),
(455,744,o),
(424,716,cs),
(385,681,o),
(315,667,o),
(251,671,cs),
(195,674,o),
(145,690,o),
(123,718,cs)
);
},
{
closed = 1;
nodes = (
(415,635,o),
(331,630,o),
(310,581,cs),
(281,513,o),
(219,427,o),
(157,341,cs),
(93,250,o),
(30,160,o),
(8,94,cs),
(-9,44,o),
(79,57,o),
(94,104,cs),
(109,149,o),
(164,225,o),
(224,310,cs),
(288,400,o),
(358,501,o),
(394,585,cs)
);
}
);
width = 438;
}
);
unicode = 122;
},
{
export = 0;
glyphname = d.001;
lastChange = "2023-12-06 18:09:26 +0000";
layers = (
{
layerId = m01;
shapes = (
{
closed = 1;
nodes = (
(106.063,737.75,o),
(42.396,569.92,o),
(59.523,556.812,cs),
(335.474,345.615,o),
(411.724,199.98,o),
(322.84,14.805,cs),
(298.886,-35.1,o),
(424.405,73.79,o),
(447.16,121.195,cs),
(551.617,338.815,o),
(400.343,512.526,o),
(122.477,725.188,cs)
);
},
{
closed = 1;
nodes = (
(179.961,590.719,o),
(104.185,569.068,o),
(101.124,547.26,cs),
(79.791,395.26,o),
(58.457,243.26,o),
(37.124,91.26,cs),
(34.002,69.014,o),
(109.942,91.833,o),
(112.876,112.74,cs),
(134.209,264.74,o),
(155.543,416.74,o),
(176.876,568.74,cs)
);
},
{
closed = 1;
nodes = (
(73.098,222.804,o),
(9.433,54.976,o),
(26.523,41.812,cs),
(101.943,-16.282,o),
(237.779,-23.622,o),
(325.646,2.942,cs),
(346.623,9.285,o),
(404.928,180.487,o),
(380.354,173.058,cs),
(296.221,147.622,o),
(162.057,154.282,o),
(89.477,210.188,cs)
);
}
);
width = 492;
}
);
},
{
glyphname = period;
lastChange = "2023-12-06 18:09:26 +0000";
layers = (
{
layerId = m01;
shapes = (
{
closed = 1;
nodes = (
(253.585,157.09,o),
(193.614,-13.797,o),
(220.473,2.003,cs),
(233.831,9.86,o),
(291.03,-7.92,o),
(321.165,1.433,cs),
(341.844,7.85,o),
(403.345,178.174,o),
(378.835,170.567,cs),
(350.97,161.92,o),
(296.169,182.14,o),
(275.527,169.997,cs)
);
}
);
width = 600;
}
);
unicode = 46;
},
{
glyphname = comma;
lastChange = "2023-12-06 18:09:26 +0000";
layers = (
{
layerId = m01;
shapes = (
{
closed = 1;
nodes = (
(265.058,165.725,o),
(204.392,-3.725,o),
(224.998,-3.725,cs),
(276.733,-3.725,o),
(286.335,-54.266,o),
(276.449,-95.928,cs),
(262.854,-153.223,o),
(344.722,-76.137,o),
(357.551,-22.072,cs),
(375.823,54.931,o),
(347.229,165.725,o),
(285.002,165.725,cs)
);
}
);
width = 600;
}
);
unicode = 44;
},
{
glyphname = semicolon;
lastChange = "2023-12-06 18:09:26 +0000";
layers = (
{
layerId = m01;
shapes = (
{
closed = 1;
nodes = (
(253.585,469.09,o),
(193.614,298.203,o),
(220.473,314.003,cs),
(233.831,321.86,o),
(291.03,304.08,o),
(321.165,313.433,cs),
(341.844,319.85,o),
(403.345,490.174,o),
(378.835,482.567,cs),
(350.97,473.92,o),
(296.169,494.14,o),
(275.527,481.997,cs)
);
},
{
closed = 1;
nodes = (
(265.058,165.725,o),
(204.392,-3.725,o),
(224.998,-3.725,cs),
(276.733,-3.725,o),
(286.335,-54.266,o),
(276.449,-95.928,cs),
(262.854,-153.223,o),
(344.722,-76.137,o),
(357.551,-22.072,cs),
(375.823,54.931,o),
(347.229,165.725,o),
(285.002,165.725,cs)
);
}
);
width = 600;
}
);
unicode = 59;
},
{
glyphname = hyphen;
lastChange = "2023-12-06 18:09:26 +0000";
layers = (
{
layerId = m01;
shapes = (
{
closed = 1;
nodes = (
(381.226,235.155,o),
(426.428,408.629,o),
(398.23,383.636,cs),
(358.984,348.849,o),
(157.211,421.454,o),
(94.872,361.302,cs),
(71.411,338.664,o),
(26.825,165.388,o),
(55.128,192.698,cs),
(106.789,242.546,o),
(309.016,171.151,o),
(357.77,214.364,cs)
);
}
